# xmcd
#
# Track frame offsets:
#	150
#	18780
#	43897
#	64500
#	87195
#	107882
#	124757
#	143852
#
# Disc length: 2469 seconds
# Revision: 3
# Processed by: cddbd v1.5.2PL0 Copyright (c) Steve Scherf et al.
# Submitted via: dBpowerAMP V12.0
#
DISCID=6609a308
DTITLE=Albert Collins - Frostbite
DYEAR=1980
DGENRE=Blues
TTITLE0=If You Love Me Like You Say
TTITLE1=Blue Monday Hangover
TTITLE2=I Got a Problem
TTITLE3=The Highway Is Like a Woman
TTITLE4=Brick
TTITLE5=Don't Go Reaching Across My Plate
TTITLE6=Give Me My Blues
TTITLE7=Snowed In
EXTD=
EXTT0=
EXTT1=
EXTT2=
EXTT3=
EXTT4=
EXTT5=
EXTT6=
EXTT7=
PLAYORDER=
